<?xml version="1.0" encoding="UTF-8"?>
<svg version="1.1" xmlns="http://www.w3.org/2000/svg" width="561" height="186">
<path d="M0 0 C185.13 0 370.26 0 561 0 C561 61.38 561 122.76 561 186 C375.87 186 190.74 186 0 186 C0 124.62 0 63.24 0 0 Z " fill="#FEFDFE" transform="translate(0,0)"/>
<path d="M0 0 C12.1273844 -0.0465575 24.25474717 -0.08198734 36.3822031 -0.10362434 C42.01484419 -0.11401453 47.64742366 -0.12808564 53.2800293 -0.15087891 C58.7265425 -0.17277853 64.17299683 -0.18460436 69.6195507 -0.18975449 C71.68652204 -0.19341975 73.75349055 -0.20057607 75.82043648 -0.21146011 C99.02258978 -0.32866039 121.58903895 0.86976037 139.8125 17.1875 C151.26757813 29.35852051 152.49960756 45.88681897 152.27734375 61.67578125 C151.8984698 72.30121646 148.85488358 81.75819811 142 90 C141.42507812 90.69738281 140.85015625 91.39476563 140.2578125 92.11328125 C135.05986351 97.83965244 129.0194119 100.91145877 122 104 C122.9178125 104.556875 123.835625 105.11375 124.78125 105.6875 C139.47980393 114.7606567 148.37460549 123.99487312 153 141 C154.95589656 150.48352478 155.98364073 163.33716141 151 172 C146.60791949 178.33036956 141.72340956 183.44302619 134 185 C123.88463309 186.11292615 113.35519226 186.60329711 105 180 C98.18314039 174.27870711 94.34810808 165.50462149 93.4921875 156.75 C93.36573937 155.22949823 93.24342428 153.70864774 93.125 152.1875 C92.34192173 143.16640027 90.47057864 135.36531216 85 128 C77.27803552 122.15381637 68.33140587 121.2931588 59 120 C59.02094727 121.17916992 59.04189453 122.35833984 59.06347656 123.57324219 C59.13657305 128.00133842 59.18204979 132.42938277 59.21972656 136.85791016 C59.23968492 138.76457729 59.2668616 140.67118448 59.30175781 142.57763672 C59.54412321 156.17148408 59.69262056 168.53506194 50.171875 179.28125 C44.03029471 184.14149339 38.3882684 185.70490222 30.625 185.5625 C29.79081543 185.55299316 28.95663086 185.54348633 28.09716797 185.53369141 C20.64415786 185.28220501 14.99910739 183.64710772 9.40234375 178.54296875 C3.78109781 172.33173781 1.88242719 165.84866123 1.85473633 157.72192383 C1.84516655 155.81392754 1.84516655 155.81392754 1.83540344 153.86738586 C1.83387408 152.48060138 1.83276049 151.09381639 1.83203125 149.70703125 C1.8288152 148.27699246 1.82545087 146.846954 1.82194519 145.41691589 C1.81596057 142.4184798 1.81410447 139.4200725 1.81469727 136.42163086 C1.81479854 132.59993562 1.80117944 128.77842763 1.78392506 124.95677662 C1.77274205 122.0011665 1.77078003 119.04560064 1.77130699 116.08997154 C1.77013508 114.68232265 1.76575813 113.27467231 1.75797462 111.86704445 C1.66678618 93.66358654 6.79229018 81.45183624 19 68 C21.85809441 65.42434265 24.79639794 63.12799654 28 61 C26.25865105 59.25865105 23.68359666 59.49956315 21.3125 59.1875 C13.1668607 57.8652813 8.85133823 54.68697972 4 48 C0.46902054 40.93804108 -0.15243388 34.55440562 -0.09765625 26.7578125 C-0.0962413 25.98944061 -0.09482635 25.22106873 -0.09336853 24.42941284 C-0.08780683 21.99456761 -0.0752616 19.55981706 -0.0625 17.125 C-0.05748004 15.46614717 -0.05291801 13.80729288 -0.04882812 12.1484375 C-0.03784998 8.0989223 -0.02061206 4.04947716 0 0 Z " fill="#D82C7A" transform="translate(0,0)"/>
<path d="M0 0 C1.34237404 0.98783081 2.67709863 1.9862398 4 3 C5.3303125 3.86625 5.3303125 3.86625 6.6875 4.75 C14.43992073 12.29289584 17.96395579 22.6252778 18.46875 33.2421875 C18.49497546 35.452994 18.50517183 37.66404401 18.5 39.875 C18.52835938 40.96941406 18.55671875 42.06382812 18.5859375 43.19140625 C18.61585467 55.83141234 13.55071155 66.74546456 5 76 C-4.18103986 83.36286339 -14.77757323 85.57537273 -26.3125 85.5 C-27.82372437 85.49250732 -27.82372437 85.49250732 -29.36547852 85.48486328 C-41.89873902 85.19228938 -51.62405494 81.13523823 -60.67578125 72.37890625 C-70.3955015 61.93563362 -71.5896289 48.598195 -71.30859375 34.99609375 C-70.71004328 21.82053256 -65.15430484 11.75852789 -55.8125 2.6875 C-40.5539349 -10.26392811 -16.52226638 -10.70686341 0 0 Z " fill="#8F3AD2" transform="translate(543,99)"/>
<path d="M0 0 C5.82480509 4.33928433 10.29880627 9.69144531 12.328125 16.734375 C12.93704982 21.87217815 13.12749553 26.90056859 10.890625 31.671875 C7.2123779 36.06782885 2.68101107 38.24072527 -3.01907349 39.07995605 C-5.45671514 39.19269623 -7.86138739 39.18578655 -10.30078125 39.125 C-11.17588852 39.11934021 -12.05099579 39.11368042 -12.95262146 39.10784912 C-15.71379206 39.08567935 -18.47360493 39.03552271 -21.234375 38.984375 C-23.1204238 38.9642848 -25.0064932 38.94603847 -26.89257812 38.9296875 C-31.48619034 38.88587868 -36.0788035 38.81698991 -40.671875 38.734375 C-39.31790446 41.75812685 -39.31790446 41.75812685 -36.93359375 43.96875 C-30.85887521 46.02513141 -23.31088524 45.32892311 -17.171875 43.734375 C-10.44616777 42.02192556 -2.07838029 41.07308637 4.328125 44.234375 C9.13763249 48.24229791 11.89201448 51.60126525 12.7734375 57.93359375 C12.94225202 62.86860501 12.82287162 66.64593243 10.765625 71.171875 C3.82887096 78.46436002 -3.11955558 83.26530693 -13.52172852 83.91137695 C-17.09269377 83.97811154 -20.66288845 84.01930305 -24.234375 84.046875 C-26.07225586 84.09038086 -26.07225586 84.09038086 -27.94726562 84.13476562 C-40.6323508 84.22262184 -51.35813795 80.71501115 -60.64453125 71.8515625 C-71.16385632 60.46121051 -72.27586992 47.78048111 -71.98046875 32.8515625 C-71.43611836 20.46928514 -65.87344369 10.62919433 -57.171875 1.984375 C-40.85848193 -11.12237783 -17.26905656 -10.96965228 0 0 Z " fill="#D82C7E" transform="translate(229.671875,100.265625)"/>
<path d="M0 0 C7.95468412 7.95468412 10.62054486 18.1166876 13.625 28.625 C17.79758756 44.85520611 17.79758756 44.85520611 26.625 58.625 C30.16678598 58.87503964 30.16678598 58.87503964 33.625 58.625 C35.23753453 57.01246547 34.87291423 55.28900957 34.9375 53.0625 C34.79650686 44.01330377 29.82280092 38.27575514 24.4296875 31.3359375 C20.50792675 25.44480772 19.81343635 19.52329099 20.625 12.625 C21.93914154 7.31211348 24.60567019 4.22666368 29.0625 1.125 C35.11462348 -2.16556195 40.8938058 -2.27489227 47.625 -1.375 C54.58715391 0.98715936 58.48889468 5.92299032 61.92578125 12.171875 C63.9761061 19.36519348 62.25859116 26.22773642 60.125 33.1875 C59.85945313 34.07937012 59.59390625 34.97124023 59.3203125 35.89013672 C58.44069448 38.80790635 57.53621691 41.71695143 56.625 44.625 C56.30402344 45.65898926 55.98304688 46.69297852 55.65234375 47.75830078 C54.66044783 50.9279917 53.64727724 54.08998681 52.625 57.25 C52.31755859 58.2201001 52.01011719 59.1902002 51.69335938 60.18969727 C48.51674963 69.78447271 44.16474559 81.39965409 35.1875 86.875 C27.3505463 90.72473164 17.55091797 91.22321209 9.25390625 88.53125 C-4.20863029 82.21175719 -10.16551165 70.16516317 -15.0703125 56.609375 C-15.89349392 54.20241947 -16.7031706 51.79080741 -17.5 49.375 C-17.92835662 48.09588266 -18.35715366 46.81691272 -18.78637695 45.53808594 C-19.99992602 41.90601719 -21.18740417 38.26563694 -22.375 34.625 C-22.68840332 33.68785156 -23.00180664 32.75070313 -23.32470703 31.78515625 C-28.88483088 15.12103287 -28.88483088 15.12103287 -25.3125 5.875 C-18.61824465 -1.89897396 -9.58726307 -3.90592199 0 0 Z " fill="#B835A6" transform="translate(366.375,94.375)"/>
<path d="M0 0 C9.66689617 5.72611192 12.72684904 22.55408846 15.921875 32.58984375 C19.59058969 47.29436589 19.59058969 47.29436589 27.796875 59.33984375 C30.89188708 59.5924978 32.99817473 59.73919388 35.796875 58.33984375 C36.6475904 46.80792389 32.5403167 40.97951779 25.6015625 32.05078125 C21.53681381 25.94486005 20.81192559 19.49849665 21.796875 12.33984375 C23.99714116 6.66447911 27.44395558 3.24903909 32.796875 0.33984375 C38.81323524 -1.66560966 46.58204255 -2.19010663 52.390625 0.57421875 C54.36075622 2.0591684 56.0843954 3.56697445 57.796875 5.33984375 C58.31894531 5.79746094 58.84101563 6.25507812 59.37890625 6.7265625 C63.40185496 11.30363637 63.45033344 16.94112115 63.37109375 22.75 C62.52689322 32.12551673 58.87697404 41.24495288 55.88720703 50.10595703 C54.87339302 53.11289398 53.89188887 56.12839642 52.91796875 59.1484375 C49.21295618 70.43463345 45.40768094 81.70809004 34.796875 88.33984375 C26.83451378 91.57594307 17.52097938 91.69853775 9.421875 88.77734375 C-1.42795544 83.67258746 -7.32907651 74.68043846 -11.4765625 63.703125 C-12.18877606 61.6902971 -12.888905 59.67316044 -13.578125 57.65234375 C-13.95316162 56.57597656 -14.32819824 55.49960938 -14.71459961 54.390625 C-15.49277624 52.15579441 -16.26709175 49.91961573 -17.03759766 47.68212891 C-18.17767028 44.41283811 -19.36049242 41.16248157 -20.55859375 37.9140625 C-21.29440911 35.88937316 -22.03009176 33.86463559 -22.765625 31.83984375 C-23.11222168 30.91598877 -23.45881836 29.99213379 -23.81591797 29.0402832 C-26.36199739 21.9137378 -27.27648633 15.91771484 -25.078125 8.58984375 C-19.67042501 -0.7835029 -10.22373232 -3.06349426 0 0 Z " fill="#D22F89" transform="translate(272.203125,93.66015625)"/>
<path d="M0 0 C0.33 0 0.66 0 1 0 C1.08636719 0.556875 1.17273438 1.11375 1.26171875 1.6875 C2.58923807 8.89751316 5.15125548 14.29369271 10.5 19.375 C15.3037398 22.49743087 19.37603029 23.27738019 25.01171875 23.65625 C27 24 27 24 29 26 C28.10861328 26.60521484 28.10861328 26.60521484 27.19921875 27.22265625 C16.55036515 35.02298291 6.04294133 47.45009186 3.47344971 60.71914673 C2.99531278 64.03248092 2.85931763 67.17469407 2.83886719 70.52099609 C2.82445587 72.43360733 2.82445587 72.43360733 2.80975342 74.38485718 C2.80490503 75.76438211 2.8006263 77.14390915 2.796875 78.5234375 C2.79404762 79.22506641 2.79122025 79.92669533 2.78830719 80.64958572 C2.77336696 84.36112081 2.76410433 88.07261753 2.75976562 91.78417969 C2.75428199 95.59926914 2.73024171 99.41400154 2.70179367 103.22897911 C2.68308982 106.18025718 2.67795764 109.13145043 2.67642975 112.08278275 C2.67342123 113.48848044 2.66545419 114.89417729 2.65224457 116.29981613 C2.56114281 126.73686933 3.29278116 134.56806774 10 143 C19.18555355 150.03574314 28.83013867 150.19614656 40 149 C46.09500472 147.31348003 50.23187694 143.55723582 53.68681335 138.3263855 C57.61016343 131.3759457 58.45241337 123.89916783 58.51171875 116.0546875 C58.52966995 115.15879913 58.54762115 114.26291077 58.56611633 113.33987427 C58.6196832 110.51829541 58.65394068 107.6968803 58.6875 104.875 C58.72072057 102.94528996 58.75521451 101.01560139 58.79101562 99.0859375 C58.87537783 94.39074431 58.94244191 89.69559514 59 85 C60.43662955 84.98007919 61.87333926 84.96588602 63.31005859 84.95410156 C64.11011322 84.94558167 64.91016785 84.93706177 65.73446655 84.92828369 C68.62306384 85.01972332 70.94172619 85.69614624 73.625 86.75 C74.48351562 87.07484375 75.34203125 87.3996875 76.2265625 87.734375 C84.80896067 91.65084966 87.88757522 94.87575448 91.578125 103.66015625 C93.44999851 108.80311698 93.82631972 113.9292641 94.23486328 119.34912109 C95.00245682 128.26975075 97.64840281 137.43357939 104.4375 143.6875 C110.78648395 148.57255783 116.81205216 149.44482665 124.5625 149.25 C125.38685547 149.24484375 126.21121094 149.2396875 127.06054688 149.234375 C131.47197738 149.17795383 135.65953034 148.87231481 140 148 C139.34 148.99 138.68 149.98 138 151 C135.5987072 151.36914349 135.5987072 151.36914349 132.52047729 151.36076355 C130.77826306 151.36696229 130.77826306 151.36696229 129.00085258 151.37328625 C127.71521479 151.36249192 126.42957699 151.3516976 125.10498047 151.34057617 C123.72303861 151.33965754 122.34109535 151.34005701 120.95915413 151.34167194 C117.25050777 151.34235063 113.54215042 151.3249341 109.83357239 151.30384064 C106.35656805 151.28678512 102.87963483 151.2859529 99.40258789 151.28381348 C89.22668682 151.26805691 79.05083978 151.22617362 68.875 151.1875 C46.14625 151.125625 23.4175 151.06375 0 151 C0 101.17 0 51.34 0 0 Z " fill="#FDF9FC" transform="translate(0,35)"/>
<path d="M0 0 C5.32369393 4.68992084 8.24725085 9.05418257 8.88569641 16.251297 C8.8903038 17.27672104 8.89491119 18.30214508 8.8996582 19.35864258 C8.91395622 21.11625664 8.91395622 21.11625664 8.92854309 22.90937805 C8.92763168 24.16260361 8.92672028 25.41582916 8.92578125 26.70703125 C8.93006638 28.0089592 8.9343515 29.31088715 8.93876648 30.65226746 C8.94620718 33.40339235 8.94595383 36.15438888 8.94067383 38.90551758 C8.93489213 42.40891953 8.9517885 45.91179055 8.9750185 49.41510487 C8.99340988 52.78326782 8.98956809 56.15131854 8.98828125 59.51953125 C8.997491 60.76668411 9.00670074 62.01383698 9.01618958 63.29878235 C8.97316852 71.45709787 8.15841077 78.15046802 3.875 85.1875 C0.02834477 88.82045216 -4.1239879 90.45344326 -9.375 90.6875 C-14.75787632 90.44756559 -18.94533152 88.81944785 -22.6875 84.875 C-25.75222066 80.22116492 -26.62754861 77.37887447 -26.6496582 71.71142578 C-26.65476913 71.05723663 -26.65988007 70.40304749 -26.66514587 69.72903442 C-26.67901681 67.57186671 -26.67808682 65.41501945 -26.67578125 63.2578125 C-26.67967003 61.75332522 -26.68400508 60.24883902 -26.68876648 58.74435425 C-26.69622365 55.59206584 -26.69594144 52.43988944 -26.69067383 49.28759766 C-26.68488478 45.25699854 -26.70179858 41.22685979 -26.7250185 37.19633675 C-26.73978485 34.08899271 -26.74062353 30.98175874 -26.73750877 27.87438583 C-26.73802069 26.38889531 -26.74323413 24.90339842 -26.75332069 23.41794205 C-26.76572244 21.33578268 -26.75887184 19.25450954 -26.74731445 17.17236328 C-26.74794388 15.98973907 -26.7485733 14.80711487 -26.7492218 13.58865356 C-26.11630755 8.04775707 -23.72035537 3.78878429 -19.375 0.3125 C-13.19901283 -2.62844627 -6.12435915 -3.06217957 0 0 Z " fill="#A338B8" transform="translate(459.375,94.6875)"/>
<path d="M0 0 C0.75364334 -0.00619858 1.50728668 -0.01239716 2.2837677 -0.01878357 C3.88000193 -0.02588628 5.47631017 -0.02269969 7.07250977 -0.01000977 C9.49442454 0.00376347 11.91240179 -0.03008617 14.33398438 -0.06835938 C28.58677676 -0.14276865 28.58677676 -0.14276865 33.97949219 4.1640625 C37.73771155 8.06067117 38.76260454 11.12185004 38.76953125 16.50390625 C38.61104257 21.67063723 38.11211232 24.78632518 34.33203125 28.56640625 C28.91575343 32.0934524 24.27702246 33.1389571 17.89453125 32.95703125 C17.12898926 32.95137146 16.36344727 32.94571167 15.57470703 32.93988037 C13.15981104 32.9177146 10.74646902 32.86756164 8.33203125 32.81640625 C6.68231329 32.7963154 5.03257177 32.77806919 3.3828125 32.76171875 C-0.6347018 32.71791568 -4.65107301 32.64903227 -8.66796875 32.56640625 C-11.18507046 27.01550492 -10.9991244 22.00729307 -10.98046875 16.00390625 C-10.99658203 14.96298828 -11.01269531 13.92207031 -11.02929688 12.84960938 C-11.02994141 11.84736328 -11.03058594 10.84511719 -11.03125 9.8125 C-11.03423096 8.90169678 -11.03721191 7.99089355 -11.0402832 7.05249023 C-10.02597878 0.27959713 -6.07656712 -0.04157089 0 0 Z " fill="#FDF9FC" transform="translate(66.66796875,53.43359375)"/>
<path d="M0 0 C1.30453125 -0.03738281 2.6090625 -0.07476562 3.953125 -0.11328125 C8.32893942 0.37742222 10.36798714 1.55126777 13.75 4.3125 C17.88464078 9.78810535 19.63354902 14.42818054 18.75 21.3125 C16.98946304 26.60367901 14.50940304 30.26160061 9.75 33.3125 C3.93095475 35.25218175 -2.22348514 35.08304192 -8.25 34.3125 C-12.59173385 32.0787094 -15.12870958 29.04115606 -17.75 25 C-18.77679773 19.48096221 -18.94121312 14.34773864 -17.125 9 C-12.52002751 2.39953943 -7.96470602 0.14836217 0 0 Z " fill="#A436B9" transform="translate(451.25,53.6875)"/>
<path d="M0 0 C1.8881543 -0.02416992 1.8881543 -0.02416992 3.81445312 -0.04882812 C10.33883753 -0.05226744 15.47368546 0.01767264 21.1875 3.3125 C22.1875 4.3125 22.1875 4.3125 22.5625 7.125 C22.1875 10.3125 22.1875 10.3125 19.875 12.625 C13.95611224 16.34151092 7.71539841 15.5341109 0.9375 15.5625 C-0.27808594 15.583125 -1.49367188 15.60375 -2.74609375 15.625 C-14.4585284 15.67609023 -14.4585284 15.67609023 -19.8125 12.3125 C-20.9375 8.8125 -20.9375 8.8125 -20.8125 5.3125 C-16.30618585 -1.56555843 -7.13596811 -0.01810241 0 0 Z " fill="#FCF8FD" transform="translate(515.8125,127.6875)"/>
<path d="M0 0 C12.54 0 25.08 0 38 0 C38 0.33 38 0.66 38 1 C36.35 1 34.7 1 33 1 C33 1.66 33 2.32 33 3 C34.98 3 36.96 3 39 3 C39 3.33 39 3.66 39 4 C37.33710938 4.19916016 37.33710938 4.19916016 35.640625 4.40234375 C34.1770673 4.58059757 32.71352651 4.75899028 31.25 4.9375 C30.52039063 5.02451172 29.79078125 5.11152344 29.0390625 5.20117188 C24.9632051 5.68988032 24.9632051 5.68988032 20.94799805 6.52075195 C18.14420422 7.21054357 15.44524717 7.21000813 12.5625 7.25 C10.89380859 7.28867188 10.89380859 7.28867188 9.19140625 7.328125 C5.61969857 6.96089924 3.7870088 6.24579294 1 4 C0.67 2.68 0.34 1.36 0 0 Z " fill="#FBE3F2" transform="translate(189,139)"/>
<path d="M0 0 C-2.22118436 1.23399131 -3.89695714 1.98678938 -6.4375 2.3125 C-10.00448612 3.26949628 -11.55475547 5.29736131 -14 8 C-14.5775 8.45375 -15.155 8.9075 -15.75 9.375 C-18.79673431 13.3357546 -18.1232023 19.76845586 -18.11352539 24.57788086 C-18.11344986 25.83865952 -18.11337433 27.09943817 -18.11329651 28.39842224 C-18.1081915 29.75389649 -18.10297553 31.10937033 -18.09765625 32.46484375 C-18.09578854 33.86731414 -18.0943663 35.26978519 -18.09336853 36.67225647 C-18.08957116 40.3432092 -18.07976496 44.01412165 -18.06866455 47.68505859 C-18.05839031 51.43912206 -18.05385809 55.19319211 -18.04882812 58.94726562 C-18.03813991 66.29819534 -18.02109732 73.649092 -18 81 C-17.01 81.33 -16.02 81.66 -15 82 C-14.690625 82.804375 -14.38125 83.60875 -14.0625 84.4375 C-13.25113586 87.05114321 -13.25113586 87.05114321 -11.32421875 88.15234375 C-8.35868947 89.23388972 -5.89872365 89.19345051 -2.75 89.125 C-1.67234375 89.10695313 -0.5946875 89.08890625 0.515625 89.0703125 C1.33546875 89.04710937 2.1553125 89.02390625 3 89 C3.33 88.34 3.66 87.68 4 87 C5.32 87 6.64 87 8 87 C8.12375 86.1028125 8.12375 86.1028125 8.25 85.1875 C9.20455872 82.4033704 10.57132271 81.56688858 13 80 C12.41909101 83.92113569 10.74317959 86.18463148 8 89 C2.97555185 91.80209609 -1.36024933 92.81043661 -7 92 C-13.06558002 90.07923299 -15.78812599 87.5518126 -19.08830261 82.25241089 C-20.3152747 79.22109224 -20.26190705 76.66748526 -20.2746582 73.39892578 C-20.27976913 72.74473663 -20.28488007 72.09054749 -20.29014587 71.41653442 C-20.30401681 69.25936671 -20.30308682 67.10251945 -20.30078125 64.9453125 C-20.30467003 63.44082522 -20.30900508 61.93633902 -20.31376648 60.43185425 C-20.32122365 57.27956584 -20.32094144 54.12738944 -20.31567383 50.97509766 C-20.30988478 46.94449854 -20.32679858 42.91435979 -20.3500185 38.88383675 C-20.36478485 35.77649271 -20.36562353 32.66925874 -20.36250877 29.56188583 C-20.36302069 28.07639531 -20.36823413 26.59089842 -20.37832069 25.10544205 C-20.39072244 23.02328268 -20.38387184 20.94200954 -20.37231445 18.85986328 C-20.37294388 17.67723907 -20.3735733 16.49461487 -20.3742218 15.27615356 C-19.74130755 9.73525707 -17.34535537 5.47628429 -13 2 C-8.57579283 0.0336857 -4.80889537 -0.19235581 0 0 Z " fill="#8F469D" transform="translate(453,93)"/>
<path d="M0 0 C8.15905686 3.62624749 12.62436472 9.94618735 15.82910156 18.11279297 C18.17591864 25.03995923 18.51701158 31.60255042 18.5 38.875 C18.52835938 39.96941406 18.55671875 41.06382812 18.5859375 42.19140625 C18.61096323 52.76477747 15.26694632 61.69412717 8.9375 70.125 C7.96103516 71.45917969 7.96103516 71.45917969 6.96484375 72.8203125 C5.05125977 74.94313528 3.6301972 75.95729376 1 77 C1.33 76.01 1.66 75.02 2 74 C2.66 74 3.32 74 4 74 C4.28875 73.38125 4.5775 72.7625 4.875 72.125 C6 70 6 70 8 68 C8.6977928 66.09692872 9.39384369 64.19233378 10.0234375 62.265625 C11 60 11 60 13.02294922 57.31884766 C15.33226237 53.44223578 15.53532061 51.11310291 15.609375 46.6328125 C15.62591125 45.95322479 15.64244751 45.27363708 15.65948486 44.57345581 C15.70768713 42.42387612 15.72927128 40.27500219 15.75 38.125 C15.77818333 36.65881918 15.80811405 35.19267085 15.83984375 33.7265625 C15.91343501 30.15119371 15.96318026 26.57595827 16 23 C15.01 23.33 14.02 23.66 13 24 C12.71125 22.989375 12.4225 21.97875 12.125 20.9375 C11.94066406 20.30328125 11.75632812 19.6690625 11.56640625 19.015625 C11.02363089 17.08409339 10.5415913 15.13580464 10.0625 13.1875 C9.27590784 9.740537 9.27590784 9.740537 6 8 C5.67 7.67 5.34 7.34 5 7 C4.67 7.66 4.34 8.32 4 9 C3.34 9 2.68 9 2 9 C1.4375 7.0625 1.4375 7.0625 1 5 C1.33 4.67 1.66 4.34 2 4 C1.34 3.67 0.68 3.34 0 3 C0 2.01 0 1.02 0 0 Z " fill="#9754CE" transform="translate(543,100)"/>
<path d="M0 0 C-0.969375 0.598125 -1.93875 1.19625 -2.9375 1.8125 C-6.23052042 3.71127509 -6.23052042 3.71127509 -7 7 C1.25 7 9.5 7 18 7 C18 7.99 18 8.98 18 10 C18.33 10.99 18.66 11.98 19 13 C25.44070471 13.10655578 31.62641289 12.96205088 38 12 C35.07070222 14.92929778 33.21098882 14.99389067 29.0793457 15.11352539 C27.44481567 15.11336723 25.81028026 15.1077281 24.17578125 15.09765625 C23.31438034 15.0962413 22.45297943 15.09482635 21.56547546 15.09336853 C18.81444831 15.0877714 16.06350256 15.07521946 13.3125 15.0625 C11.4472668 15.05748463 9.58203233 15.05292179 7.71679688 15.04882812 C3.14449989 15.03780292 -1.42773625 15.02054027 -6 15 C-6 14.34 -6 13.68 -6 13 C-0.06 13 5.88 13 12 13 C12 12.01 12 11.02 12 10 C5.07 9.67 -1.86 9.34 -9 9 C-9.33 7.35 -9.66 5.7 -10 4 C-8.68 3.34 -7.36 2.68 -6 2 C-6 1.34 -6 0.68 -6 0 C-3 -1 -3 -1 0 0 Z " fill="#C5387C" transform="translate(196,124)"/>
<path d="M0 0 C4.99843701 3.80315859 7.32248191 6.25143677 8.4765625 12.63671875 C9.06100919 24.64863618 4.88346229 35.52411919 1.09033203 46.76611328 C0.07651802 49.77305023 -0.90498613 52.78855267 -1.87890625 55.80859375 C-8.75469748 76.74582476 -8.75469748 76.74582476 -18 83 C-17.731875 82.484375 -17.46375 81.96875 -17.1875 81.4375 C-15.87523423 78.82803375 -15.87523423 78.82803375 -14.5625 75.3125 C-14.046875 74.219375 -13.53125 73.12625 -13 72 C-11.515 71.505 -11.515 71.505 -10 71 C-7.35670853 64.8675638 -5.55764 58.49016667 -4 52 C-3.34 52 -2.68 52 -2 52 C-1.87625 50.783125 -1.7525 49.56625 -1.625 48.3125 C-1.2060726 44.90123401 -0.30606322 42.18352909 1 39 C1.3813074 36.67402489 1.72460254 34.34087842 2 32 C2.66 32 3.32 32 4 32 C4 29.36 4 26.72 4 24 C4.33 24 4.66 24 5 24 C6.17360108 17.66255419 6.08732741 12.16362649 4 6 C2.04283243 3.5366901 2.04283243 3.5366901 0 2 C0 1.34 0 0.68 0 0 Z " fill="#BE4585" transform="translate(327,97)"/>
<path d="M0 0 C3.35145968 3.04678153 4.83082362 5.47741255 5.3359375 10.0234375 C5.46740671 21.30349551 5.46740671 21.30349551 1 26 C-6.04685054 33.20741169 -14.18209843 36.07633534 -24.19921875 36.203125 C-26.69527072 36.22440195 -29.1913782 36.23979613 -31.6875 36.25 C-32.92951172 36.270625 -34.17152344 36.29125 -35.45117188 36.3125 C-42.65483536 36.34304017 -48.32359884 35.74868087 -55 33 C-51.87576613 32.14872132 -49.54097294 31.9801124 -46.3125 32.375 C-45.52488281 32.46523437 -44.73726562 32.55546875 -43.92578125 32.6484375 C-42 33 -42 33 -41 34 C-39.41263947 34.09924514 -37.82092749 34.13079908 -36.23046875 34.1328125 C-35.25916016 34.13410156 -34.28785156 34.13539063 -33.28710938 34.13671875 C-32.26423828 34.13285156 -31.24136719 34.12898438 -30.1875 34.125 C-29.17623047 34.12886719 -28.16496094 34.13273437 -27.12304688 34.13671875 C-25.6602832 34.13478516 -25.6602832 34.13478516 -24.16796875 34.1328125 C-22.82641724 34.13112061 -22.82641724 34.13112061 -21.45776367 34.12939453 C-19.13396274 34.00705277 -17.19244712 33.7772802 -15 33 C-14.505 32.01 -14.505 32.01 -14 31 C-11.93359375 30.1484375 -11.93359375 30.1484375 -9.4375 29.375 C-8.61121094 29.11460937 -7.78492188 28.85421875 -6.93359375 28.5859375 C-5.97646484 28.29589844 -5.97646484 28.29589844 -5 28 C-5 27.01 -5 26.02 -5 25 C-4.34 25 -3.68 25 -3 25 C-3.495 23.515 -3.495 23.515 -4 22 C-3.01 21.67 -2.02 21.34 -1 21 C-1 21.66 -1 22.32 -1 23 C1.66604583 21.66697708 1.99124788 20.81009519 3 18 C3.5644676 11.45217584 2.12504015 6.17273566 0 0 Z " fill="#C33C78" transform="translate(237,148)"/>
<path d="M0 0 C6.93 0 13.86 0 21 0 C19 2 19 2 15.75 3.3125 C7.93996696 6.60178777 4.63554144 11.61631186 1 19 C0.67 19 0.34 19 0 19 C0 12.73 0 6.46 0 0 Z " fill="#FDF5FA" transform="translate(0,0)"/>
<path d="M0 0 C1.2375 -0.02578125 2.475 -0.0515625 3.75 -0.078125 C7 0.25 7 0.25 8.9375 1.765625 C9.288125 2.25546875 9.63875 2.7453125 10 3.25 C9.01 3.58 8.02 3.91 7 4.25 C6.67 3.59 6.34 2.93 6 2.25 C-0.40353322 2.0138041 -5.84629161 2.426679 -12 4.25 C-12 5.24 -12 6.23 -12 7.25 C-13.65 7.58 -15.3 7.91 -17 8.25 C-18.76810304 21.80211422 -18.76810304 21.80211422 -14 34.25 C-10.93282876 36.54582863 -10.93282876 36.54582863 -8 38.25 C-6.71871286 41.66676571 -7.0614725 43.81600792 -8 47.25 C-8.29132813 46.693125 -8.58265625 46.13625 -8.8828125 45.5625 C-11.07280784 41.48552754 -13.32140789 37.70321159 -16.1875 34.0625 C-20.55224708 28.34008095 -21.52442868 23.13450524 -21.37890625 16.00390625 C-20.55948474 10.04831693 -17.5058748 6.42458235 -12.875 2.8125 C-8.40318794 0.38216736 -5.04538854 0.06306736 0 0 Z " fill="#BE4785" transform="translate(315,92.75)"/>
<path d="M0 0 C1.010625 0.5775 2.02125 1.155 3.0625 1.75 C3.3925 3.07 3.7225 4.39 4.0625 5.75 C-3.8575 5.75 -11.7775 5.75 -19.9375 5.75 C-15.93955975 -2.24588051 -7.80762892 -2.91186161 0 0 Z " fill="#FCDFF3" transform="translate(208.9375,124.25)"/>
<path d="M0 0 C1.18851562 0.00902344 2.37703125 0.01804688 3.6015625 0.02734375 C4.51679688 0.03894531 5.43203125 0.05054688 6.375 0.0625 C6.045 0.7225 5.715 1.3825 5.375 2.0625 C2.075 2.0625 -1.225 2.0625 -4.625 2.0625 C-4.955 3.3825 -5.285 4.7025 -5.625 6.0625 C-8.09879368 8.53629368 -10.3178935 9.02902922 -13.625 10.0625 C-14.615 10.5575 -14.615 10.5575 -15.625 11.0625 C-15.31578116 12.52153258 -15.00251201 13.97970722 -14.6875 15.4375 C-14.51347656 16.24960938 -14.33945312 17.06171875 -14.16015625 17.8984375 C-13.70169307 20.091963 -13.70169307 20.091963 -12.625 22.0625 C-12.955 23.0525 -13.285 24.0425 -13.625 25.0625 C-13.23567144 27.20505793 -13.23567144 27.20505793 -12.625 29.0625 C-15.78335687 26.10790809 -17.43080408 24.23226598 -17.828125 19.79296875 C-17.92669456 14.44557006 -17.78643318 10.59388755 -14.625 6.0625 C-9.78873113 1.31650815 -6.74436305 -0.06612121 0 0 Z " fill="#9D41AC" transform="translate(450.625,53.9375)"/>
<path d="M0 0 C-3.61872223 1.20624074 -4.25270198 0.70235768 -7.625 -0.8125 C-18.22668375 -5.26582355 -27.91301665 -6.33845967 -39 -3 C-42.12020349 -1.61991 -44.87443102 -0.07990753 -47.75 1.75 C-48.86375 2.36875 -48.86375 2.36875 -50 3 C-50.66 2.67 -51.32 2.34 -52 2 C-51 -1 -51 -1 -48.41796875 -2.3515625 C-47.35191406 -2.77179688 -46.28585937 -3.19203125 -45.1875 -3.625 C-44.12917969 -4.05039063 -43.07085937 -4.47578125 -41.98046875 -4.9140625 C-28.3556888 -9.87826804 -12.14807849 -7.73664123 0 0 Z " fill="#8F52C2" transform="translate(543,99)"/>
<path d="M0 0 C1.05435781 3.23680474 0.88873181 5.28457379 0.0625 8.5625 C-1.42828768 15.36170055 -1.83067696 22.24057739 0 29 C0.103125 30.03125 0.20625 31.0625 0.3125 32.125 C1.05382169 36.3033586 2.3990964 39.78465519 4.0625 43.66796875 C5 46 5 46 5.4375 48.23828125 C5.623125 48.81964844 5.80875 49.40101563 6 50 C6.99 50.33 7.98 50.66 9 51 C11.73814047 53.53778873 13.92595707 55.8889356 16 59 C9.31658557 56.77994408 5.12963977 51.69720452 1.66796875 45.6875 C-2.05334123 37.65950544 -3.36618686 29.96194562 -3.3125 21.1875 C-3.31121094 20.31254883 -3.30992187 19.43759766 -3.30859375 18.53613281 C-3.21197194 12.02140705 -2.35733735 6.11785168 0 0 Z " fill="#8B4EBA" transform="translate(475,118)"/>
<path d="M0 0 C7.51461711 2.0922622 13.09348166 6.81075801 17.53125 13.20703125 C20.39908187 18.89148371 20.94367888 24.73397227 20 31 C18.99041108 33.92574748 17.95392375 35.50331965 16 38 C13.75 38.9375 13.75 38.9375 12 39 C12 38.01 12 37.02 12 36 C12.66 36.33 13.32 36.66 14 37 C13.505 35.515 13.505 35.515 13 34 C14.32 34 15.64 34 17 34 C17.73030908 27.78675502 18.23180249 22.15901243 17 16 C16.34 16 15.68 16 15 16 C14.5978125 14.824375 14.5978125 14.824375 14.1875 13.625 C13.15185568 10.71885077 13.15185568 10.71885077 10 9 C10 8.34 10 7.68 10 7 C8.9171875 6.8453125 8.9171875 6.8453125 7.8125 6.6875 C4.69946508 5.92653591 2.56994002 4.9090983 0 3 C0 2.01 0 1.02 0 0 Z " fill="#C54B84" transform="translate(222,97)"/>
<path d="M0 0 C0.66 0 1.32 0 2 0 C0.49794612 9.16252866 -3.32931817 18.32931817 -10 25 C-12.75 26.3125 -12.75 26.3125 -15 27 C-15.33 26.34 -15.66 25.68 -16 25 C-15.01 25 -14.02 25 -13 25 C-13.0825 24.0925 -13.165 23.185 -13.25 22.25 C-13 19 -13 19 -11.125 16.75 C-10.42375 16.1725 -9.7225 15.595 -9 15 C-8.34 14.34 -7.68 13.68 -7 13 C-6.34 13.33 -5.68 13.66 -5 14 C-4.67 12.68 -4.34 11.36 -4 10 C-3.34 10 -2.68 10 -2 10 C-2 7.69 -2 5.38 -2 3 C-1.34 3 -0.68 3 0 3 C0 2.01 0 1.02 0 0 Z " fill="#B140A2" transform="translate(415,154)"/>
<path d="M0 0 C4.38855677 1.72407587 6.91486937 4.82973873 9 9 C9.0902835 10.63417595 9.11755658 12.27202837 9.11352539 13.90869141 C9.11344986 14.92959869 9.11337433 15.95050598 9.11329651 17.00234985 C9.10813522 18.10759003 9.10297394 19.2128302 9.09765625 20.3515625 C9.0962413 21.4807309 9.09482635 22.60989929 9.09336853 23.77328491 C9.08775744 27.39054988 9.07520303 31.00775364 9.0625 34.625 C9.05748643 37.07291577 9.05292328 39.52083252 9.04882812 41.96875 C9.0377844 47.97918766 9.02103544 53.98958946 9 60 C8.67 60 8.34 60 8 60 C6.92278308 39.42687585 6.92278308 39.42687585 7 33.375 C7.05816954 28.23946097 6.81826723 23.12775126 6.5625 18 C6.52318359 17.16130371 6.48386719 16.32260742 6.44335938 15.45849609 C6.40146484 14.66781738 6.35957031 13.87713867 6.31640625 13.0625 C6.27974854 12.35222656 6.24309082 11.64195313 6.20532227 10.91015625 C6.04492639 8.77973435 6.04492639 8.77973435 5 6 C3.33729713 4.66172696 1.67083819 3.32810215 0 2 C0 1.34 0 0.68 0 0 Z " fill="#9843AA" transform="translate(458,95)"/>
<path d="M0 0 C-3.01031744 0.93423645 -3.86650268 1.04449911 -7 0 C-21.54845191 -1.90826107 -35.62777205 -0.88905566 -48 8 C-49.02392114 8.97549244 -50.03186699 9.96911763 -51 11 C-51.66 10.67 -52.32 10.34 -53 10 C-39.9641138 -4.07709117 -17.48240314 -7.72906244 0 0 Z " fill="#BE477D" transform="translate(222,96)"/>
<path d="M0 0 C0.33 0 0.66 0 1 0 C1.01213028 1.00811234 1.01213028 1.00811234 1.02450562 2.03659058 C1.11035284 9.011733 1.20984703 15.98658469 1.31738281 22.96142578 C1.35574082 25.56684499 1.39058145 28.1723184 1.421875 30.77783203 C1.46737751 34.51614803 1.52539626 38.25408865 1.5859375 41.9921875 C1.59748871 43.16304901 1.60903992 44.33391052 1.62094116 45.54025269 C1.64081085 46.62122223 1.66068054 47.70219177 1.68115234 48.81591797 C1.69447601 49.77078094 1.70779968 50.72564392 1.7215271 51.70944214 C1.78495932 54.19602647 1.78495932 54.19602647 4 56 C4.04320247 58.33293334 4.04022391 60.6670134 4 63 C4.42854995 65.31036915 4.42854995 65.31036915 5 67 C1.60200517 64.37427672 0.71028464 61.07352616 0 57 C-0.26714922 52.61407172 -0.23276534 48.24029007 -0.1953125 43.84765625 C-0.1924826 42.59238632 -0.18965271 41.33711639 -0.18673706 40.04380798 C-0.17747127 36.72785653 -0.15954299 33.41218699 -0.1373291 30.09631348 C-0.11676595 26.70420755 -0.10771309 23.31207234 -0.09765625 19.91992188 C-0.07565124 13.27987083 -0.04221495 6.63995167 0 0 Z " fill="#B83B6F" transform="translate(2,107)"/>
<path d="M0 0 C0.75 1.625 0.75 1.625 1 4 C-1.79064389 9.06450187 -4.50322511 12.1677417 -10 14 C-12.4535801 14.19741449 -14.91429319 14.31215287 -17.375 14.375 C-19.33566406 14.44847656 -19.33566406 14.44847656 -21.3359375 14.5234375 C-25.80766463 13.88461934 -27.19330328 12.4352234 -30 9 C-28.68 9 -27.36 9 -26 9 C-24.65835921 8.7018576 -23.32148827 8.37756808 -22 8 C-21.67 8.66 -21.34 9.32 -21 10 C-21.33 10.99 -21.66 11.98 -22 13 C-12.73693286 12.72617666 -12.73693286 12.72617666 -5 8 C-3.11431306 4.89985071 -3.11431306 4.89985071 -2 2 C-1.34 2 -0.68 2 0 2 C0 1.34 0 0.68 0 0 Z " fill="#9843A7" transform="translate(468,74)"/>
<path d="M0 0 C0.103125 0.639375 0.20625 1.27875 0.3125 1.9375 C0.539375 2.618125 0.76625 3.29875 1 4 C1.99 4.33 2.98 4.66 4 5 C4.309375 5.804375 4.61875 6.60875 4.9375 7.4375 C5.74886414 10.05114321 5.74886414 10.05114321 7.67578125 11.15234375 C10.64131053 12.23388972 13.10127635 12.19345051 16.25 12.125 C17.86648438 12.09792969 17.86648438 12.09792969 19.515625 12.0703125 C20.33546875 12.04710937 21.1553125 12.02390625 22 12 C22.33 11.34 22.66 10.68 23 10 C24.32 10 25.64 10 27 10 C27.0825 9.401875 27.165 8.80375 27.25 8.1875 C28.20455872 5.4033704 29.57132271 4.56688858 32 3 C31.41909101 6.92113569 29.74317959 9.18463148 27 12 C21.97555185 14.80209609 17.63975067 15.81043661 12 15 C6.81836449 13.35914876 3.90256588 11.62260493 1 7 C-0.25 3.6875 -0.25 3.6875 -1 1 C-0.67 0.67 -0.34 0.34 0 0 Z " fill="#9E55AD" transform="translate(434,170)"/>
<path d="M0 0 C1.01966251 3.2301197 0.95302003 4.18478789 0.0625 7.6875 C-2.44399156 17.98628167 -1.79543623 29.84158441 1 40 C1.66 40 2.32 40 3 40 C3.53229326 41.26607607 4.05044544 42.53810412 4.5625 43.8125 C4.85253906 44.52019531 5.14257812 45.22789062 5.44140625 45.95703125 C6 48 6 48 5 51 C-1.85761099 41.36227645 -3.25534602 32.00393483 -3.375 20.375 C-3.39590698 19.06946167 -3.39590698 19.06946167 -3.41723633 17.73754883 C-3.37123847 11.402389 -2.10371351 5.96291763 0 0 Z " fill="#C1467F" transform="translate(161,118)"/>
<path d="M0 0 C4.88525815 2.26815557 7.47702769 5.25681206 10 10 C9.67 10.99 9.34 11.98 9 13 C8.731875 12.360625 8.46375 11.72125 8.1875 11.0625 C7.11332248 8.66868314 7.11332248 8.66868314 4 8 C4 7.01 4 6.02 4 5 C3.01 5.33 2.02 5.66 1 6 C0.67 4.68 0.34 3.36 0 2 C-5.12583611 1.89748328 -9.94997778 1.96409801 -15 3 C-15.33 4.32 -15.66 5.64 -16 7 C-17.65 7.33 -19.3 7.66 -21 8 C-19.69043986 4.07131957 -17.99743123 3.09137803 -14.51953125 1.0234375 C-9.7555443 -0.91170138 -5.02553007 -0.75736862 0 0 Z " fill="#AA4899" transform="translate(363,93)"/>
<path d="M0 0 C3.89651985 2.82497689 6.8320564 5.8105846 9.5 9.8125 C9.17 10.8025 8.84 11.7925 8.5 12.8125 C7.901875 11.86375 7.30375 10.915 6.6875 9.9375 C4.22625417 6.42143453 2.54896781 5.16215594 -1.5 3.8125 C-1.91894531 3.30074219 -2.33789062 2.78898437 -2.76953125 2.26171875 C-5.43511101 0.02937092 -7.78959335 0.52407208 -11.1875 0.625 C-12.36699219 0.65207031 -13.54648437 0.67914063 -14.76171875 0.70703125 C-15.66535156 0.74183594 -16.56898438 0.77664062 -17.5 0.8125 C-17.5 1.4725 -17.5 2.1325 -17.5 2.8125 C-20.47411124 4.05171302 -23.35262818 5.11308404 -26.5 5.8125 C-19.44583989 -2.05560166 -9.88158399 -3.35268028 0 0 Z " fill="#A94D99" transform="translate(417.5,94.1875)"/>
<path d="M0 0 C0.886875 0.66 1.77375 1.32 2.6875 2 C2.0275 2.66 1.3675 3.32 0.6875 4 C-1.9375 3.625 -1.9375 3.625 -4.3125 3 C-4.8075 1.515 -4.8075 1.515 -5.3125 0 C-6.64532775 -0.05553449 -7.97888865 -0.09346189 -9.3125 -0.125 C-10.055 -0.14820313 -10.7975 -0.17140625 -11.5625 -0.1953125 C-14.50897223 -0.07385239 -14.50897223 -0.07385239 -18.03125 1 C-22.65613932 2.22468286 -27.05450192 2.22573937 -31.8125 2.125 C-33.04613281 2.11146484 -33.04613281 2.11146484 -34.3046875 2.09765625 C-36.30742083 2.07436865 -38.31000154 2.03850959 -40.3125 2 C-40.6425 1.34 -40.9725 0.68 -41.3125 0 C-40.33410156 0.02320313 -39.35570312 0.04640625 -38.34765625 0.0703125 C-29.94642777 0.30403462 -29.94642777 0.30403462 -21.6875 -1 C-14.73145347 -2.81805761 -6.42906181 -3.67747552 0 0 Z " fill="#BC427A" transform="translate(234.3125,145)"/>
<path d="M0 0 C0.33 0.66 0.66 1.32 1 2 C0.67 2.9075 0.34 3.815 0 4.75 C-1.11440186 8.37180603 -0.98837496 10.37595847 0 14 C0.66 14.66 1.32 15.32 2 16 C1.835 16.61875 1.67 17.2375 1.5 17.875 C0.79372274 20.03099962 0.79372274 20.03099962 1.75 22.1875 C2.95109598 24.31782938 2.95109598 24.31782938 6 25 C6.5625 26.9375 6.5625 26.9375 7 29 C7.66 29.66 8.32 30.32 9 31 C8.34 31.66 7.68 32.32 7 33 C5.69858519 31.29908111 4.40927835 29.58889459 3.125 27.875 C2.40570313 26.92367187 1.68640625 25.97234375 0.9453125 24.9921875 C-2.99258197 18.93510484 -3.78988316 13.07460572 -3 6 C-1.5 2.375 -1.5 2.375 0 0 Z " fill="#AD4EA0" transform="translate(390,101)"/>
<path d="M0 0 C1.03125 0.02835937 2.0625 0.05671875 3.125 0.0859375 C4.15625 0.09882812 5.1875 0.11171875 6.25 0.125 C9.03155972 0.45001921 10.74679651 1.03172867 13.125 2.4609375 C13.125 3.1209375 13.125 3.7809375 13.125 4.4609375 C6.525 4.4609375 -0.075 4.4609375 -6.875 4.4609375 C-2.875 0.4609375 -2.875 0.4609375 0 0 Z " fill="#FDFDFC" transform="translate(197.875,124.5390625)"/>
<path d="M0 0 C0.33 0 0.66 0 1 0 C2.46576858 10.09751688 -2.03561558 18.35486273 -7.6953125 26.4140625 C-9.97895837 29.2026351 -11.53837673 30.84612558 -15 32 C-14.505 30.515 -14.505 30.515 -14 29 C-13.34 29 -12.68 29 -12 29 C-11.71125 28.38125 -11.4225 27.7625 -11.125 27.125 C-10 25 -10 25 -8 23 C-7.27700004 21.02818193 -6.55649951 19.05533279 -5.859375 17.07421875 C-5 15 -5 15 -2.875 12.0625 C-0.43794733 8.08198064 -0.20401303 4.59029316 0 0 Z " fill="#894CBA" transform="translate(559,145)"/>
<path d="M0 0 C2.34055563 2.85880091 3.67483485 5.41019319 4.82421875 8.9140625 C5.13037109 9.83960937 5.43652344 10.76515625 5.75195312 11.71875 C6.06068359 12.6778125 6.36941406 13.636875 6.6875 14.625 C7.00783203 15.59179688 7.32816406 16.55859375 7.65820312 17.5546875 C10 24.70490738 10 24.70490738 10 27 C9.34 27 8.68 27 8 27 C7.5875 26.05125 7.175 25.1025 6.75 24.125 C4.9959869 20.99283376 4.29148243 20.13499394 1 19 C1 18.34 1 17.68 1 17 C1.99 17 2.98 17 4 17 C4 15.35 4 13.7 4 12 C3.34 12 2.68 12 2 12 C0.86235649 7.73383684 0 4.43513689 0 0 Z " fill="#C74188" transform="translate(279,104)"/>
<path d="M0 0 C0.84304688 0.42925781 0.84304688 0.42925781 1.703125 0.8671875 C11.70756548 5.80135032 20.05219256 6.49450573 31 6 C31 5.34 31 4.68 31 4 C33.64 3.67 36.28 3.34 39 3 C30.83968819 9.41167356 22.05636877 9.13592094 12 8 C6.69434424 6.41622216 3.09041949 4.63562923 0 0 Z " fill="#C1427B" transform="translate(9,177)"/>
<path d="M0 0 C1.5 1.125 1.5 1.125 3 3 C3.1875 6.1875 3.1875 6.1875 3 9 C4.32 9.66 5.64 10.32 7 11 C6.67 11.99 6.34 12.98 6 14 C6.95786338 16.70470218 6.95786338 16.70470218 8.375 19.625 C10.70081841 24.92090786 11.71227983 29.2455965 12 35 C9.41747689 32.41747689 8.81356402 30.05477236 7.6171875 26.6015625 C7.39805695 25.97019379 7.17892639 25.33882507 6.95315552 24.68832397 C6.49143078 23.35278295 6.03267085 22.01621377 5.57666016 20.67871094 C4.87902382 18.63677743 4.16872525 16.59957017 3.45703125 14.5625 C3.00964475 13.26328639 2.56300539 11.96381521 2.1171875 10.6640625 C1.71097168 9.48279785 1.30475586 8.3015332 0.88623047 7.08447266 C0 4 0 4 0 0 Z " fill="#AB489B" transform="translate(342,119)"/>
<path d="M0 0 C1 3 1 3 -0.4375 6.1875 C-1.2109375 7.5796875 -1.2109375 7.5796875 -2 9 C-2.99 8.67 -3.98 8.34 -5 8 C-5 8.66 -5 9.32 -5 10 C-9.85166093 11.56575099 -13.87803721 12.24108411 -19.02734375 12.1953125 C-20.95610352 12.18564453 -20.95610352 12.18564453 -22.92382812 12.17578125 C-24.26172154 12.15907601 -25.59961217 12.14214619 -26.9375 12.125 C-28.30272783 12.11495322 -29.6679628 12.10583036 -31.03320312 12.09765625 C-34.35565199 12.07417605 -37.67773321 12.04133359 -41 12 C-41 11.67 -41 11.34 -41 11 C-40.23445801 10.9906543 -39.46891602 10.98130859 -38.68017578 10.97167969 C-35.16116678 10.91750023 -31.64341984 10.8339457 -28.125 10.75 C-26.92101562 10.73582031 -25.71703125 10.72164062 -24.4765625 10.70703125 C-17.09695348 10.5064984 -10.44985165 9.86214788 -4 6 C-2.17179679 4.057086 -1.20711143 2.41422286 0 0 Z " fill="#C33873" transform="translate(104,76)"/>
<path d="M0 0 C0.99 0.33 1.98 0.66 3 1 C2.67 1.99 2.34 2.98 2 4 C-5.4879931 7.32182483 -15.21796209 7.3850625 -22.875 4.5 C-23.90625 4.005 -24.9375 3.51 -26 3 C-24.68 2.34 -23.36 1.68 -22 1 C-22 1.66 -22 2.32 -22 3 C-18.89601022 3.08710289 -15.79233452 3.14042309 -12.6875 3.1875 C-11.80642578 3.21263672 -10.92535156 3.23777344 -10.01757812 3.26367188 C-9.17001953 3.27333984 -8.32246094 3.28300781 -7.44921875 3.29296875 C-6.66893311 3.3086792 -5.88864746 3.32438965 -5.0847168 3.34057617 C-2.50096147 2.91847304 -1.63707833 1.98510058 0 0 Z " fill="#C45491" transform="translate(305,178)"/>
<path d="M0 0 C0.70125 0.144375 1.4025 0.28875 2.125 0.4375 C4.15520561 0.83471414 6.1997942 1.16151076 8.25 1.4375 C9.1575 1.623125 10.065 1.80875 11 2 C11.33 2.66 11.66 3.32 12 4 C17.03702761 5.19967061 22.220276 5.31175186 27.375 5.5625 C28.62216797 5.62727539 28.62216797 5.62727539 29.89453125 5.69335938 C31.92953228 5.79861805 33.96474703 5.89973072 36 6 C36 6.33 36 6.66 36 7 C11.2319019 8.08383356 11.2319019 8.08383356 1 2 C0.67 1.34 0.34 0.68 0 0 Z " fill="#9052BC" transform="translate(491,177)"/>
<path d="M0 0 C1.7207976 2.5811964 2.61051002 4.42662463 3.5625 7.3125 C3.81128906 8.05113281 4.06007812 8.78976563 4.31640625 9.55078125 C5.85899081 15.07764134 6.18223428 20.47418953 6.1875 26.1875 C6.19974609 26.89841797 6.21199219 27.60933594 6.22460938 28.34179688 C6.23525454 32.11373295 6.14423638 33.78364543 4 37 C4.02320313 36.05640625 4.04640625 35.1128125 4.0703125 34.140625 C4.21775776 23.65094785 3.49901889 13.99719682 0 4 C0 2.68 0 1.36 0 0 Z " fill="#C14C7F" transform="translate(148,129)"/>
<path d="M0 0 C1.25204695 2.5040939 0.82155131 3.47411644 0.3125 6.1875 C-0.37712181 11.40171371 1.11744756 13.71984638 4 18 C4 18.66 4 19.32 4 20 C4.99 20.33 5.98 20.66 7 21 C6.34 21.66 5.68 22.32 5 23 C-5.27922676 8.19791347 -5.27922676 8.19791347 -4.7265625 3.84765625 C-4 2 -4 2 -1.9375 0.75 C-1.298125 0.5025 -0.65875 0.255 0 0 Z " fill="#AB4E9D" transform="translate(359,152)"/>
<path d="M0 0 C0.66 0 1.32 0 2 0 C4.71587276 8.652148 7.42867609 17.30348988 10 26 C9.34 26 8.68 26 8 26 C4.39420821 19.47523391 1.71848337 12.5205158 2 5 C1.01 4.67 0.02 4.34 -1 4 C-0.67 2.68 -0.34 1.36 0 0 Z " fill="#AC4F9A" transform="translate(373,107)"/>
<path d="M0 0 C10.45619459 -0.75435472 20.11726414 1.28030477 29 7 C25.43075424 8.18974859 25.06815324 7.79657538 21.8125 6.25 C14.81687427 3.25632955 7.46443573 2.22246342 0 1 C0 0.67 0 0.34 0 0 Z " fill="#8B4DB8" transform="translate(514,92)"/>
<path d="M0 0 C0.33 0 0.66 0 1 0 C1.61916858 22.59489033 1.61916858 22.59489033 -2 33 C-2.66 33 -3.32 33 -4 33 C-3.91621094 32.22914062 -3.83242187 31.45828125 -3.74609375 30.6640625 C-3.59333984 29.15972656 -3.59333984 29.15972656 -3.4375 27.625 C-3.33308594 26.62726563 -3.22867188 25.62953125 -3.12109375 24.6015625 C-2.78855292 22.015963 -2.78855292 22.015963 -4 20 C-3.01 19.34 -2.02 18.68 -1 18 C-0.49468134 16.07558585 -0.49468134 16.07558585 -0.48828125 13.8671875 C-0.45283203 13.06152344 -0.41738281 12.25585938 -0.38085938 11.42578125 C-0.35830078 10.58402344 -0.33574219 9.74226563 -0.3125 8.875 C-0.27833984 8.02550781 -0.24417969 7.17601562 -0.20898438 6.30078125 C-0.12640827 4.20098895 -0.06153022 2.10051436 0 0 Z " fill="#C3447B" transform="translate(151,46)"/>
<path d="M0 0 C-1.09887695 1.49536133 -1.09887695 1.49536133 -3 3 C-5.91088867 3.2487793 -5.91088867 3.2487793 -9.41796875 3.07421875 C-10.67158203 3.01943359 -11.92519531 2.96464844 -13.21679688 2.90820312 C-14.52712891 2.83537109 -15.83746094 2.76253906 -17.1875 2.6875 C-18.52271971 2.62422635 -19.85800694 2.56236076 -21.19335938 2.50195312 C-24.46316913 2.34849635 -27.7315959 2.18061151 -31 2 C-31 1.67 -31 1.34 -31 1 C-30.32420898 0.97494385 -29.64841797 0.9498877 -28.95214844 0.92407227 C-25.8845832 0.80789258 -22.81730842 0.68526563 -19.75 0.5625 C-18.68652344 0.52318359 -17.62304688 0.48386719 -16.52734375 0.44335938 C-14.99013672 0.38051758 -14.99013672 0.38051758 -13.421875 0.31640625 C-12.00793457 0.26141968 -12.00793457 0.26141968 -10.56542969 0.20532227 C-1.59485269 -0.51263122 -1.59485269 -0.51263122 0 0 Z " fill="#F2D1E4" transform="translate(227,183)"/>
<path d="M0 0 C2.54173977 -0.02716824 5.08318415 -0.04691969 7.625 -0.0625 C8.33785156 -0.07087891 9.05070313 -0.07925781 9.78515625 -0.08789062 C13.97344438 -0.10710296 17.8728462 0.1732673 22 1 C22 1.66 22 2.32 22 3 C23.98 2.67 25.96 2.34 28 2 C28 5.41099168 27.50854594 8.63088314 27 12 C26.67 12 26.34 12 26 12 C25.896875 10.906875 25.79375 9.81375 25.6875 8.6875 C25.20919895 6.70295061 25.20919895 6.70295061 24 5 C16.83450845 1.29870749 7.89297918 1.36390524 0 1 C0 0.67 0 0.34 0 0 Z " fill="#8D48BF" transform="translate(512,126)"/>
<path d="M0 0 C-2.22118436 1.23399131 -3.89695714 1.98678938 -6.4375 2.3125 C-10.00448612 3.26949628 -11.55475547 5.29736131 -14 8 C-16 10 -18 12 -20 14 C-18.8208396 8.5329836 -17.53345997 5.60616134 -13 2 C-8.59019427 -0.01317218 -4.81232093 -0.19249284 0 0 Z " fill="#9B53A9" transform="translate(453,93)"/>
<path d="M0 0 C2.25 0.0625 2.25 0.0625 5 1 C6.18435816 2.74019413 7.05535332 4.48392821 7.91015625 6.40625 C9.07570848 8.48919448 9.07570848 8.48919448 13 9 C12.67 11.97 12.34 14.94 12 18 C9.42474391 14.13711587 7.59891863 10.01234974 5.6328125 5.8125 C4.01101994 3.01898172 2.70961998 1.68911375 0 0 Z " fill="#C14479" transform="translate(81,125)"/>
<path d="M0 0 C6.52163117 2.96557071 11.75795211 6.0998248 17 11 C15.15234375 11.64453125 15.15234375 11.64453125 13 12 C11.29006566 10.3777546 9.62652316 8.70586575 8 7 C5.33466965 5.680982 5.33466965 5.680982 3 5 C3 4.34 3 3.68 3 3 C2.01 2.67 1.02 2.34 0 2 C0 1.34 0 0.68 0 0 Z " fill="#C73F7B" transform="translate(122,105)"/>
<path d="M0 0 C1.98 0.66 3.96 1.32 6 2 C6.90896604 6.94881513 7.08562787 11.06532787 6 16 C5.34 16.33 4.68 16.66 4 17 C3.87882812 16.27554688 3.75765625 15.55109375 3.6328125 14.8046875 C2.75060421 9.71502427 1.83557653 4.85116654 0 0 Z " fill="#AB3F9B" transform="translate(399,136)"/>
<path d="M0 0 C0.268125 0.598125 0.53625 1.19625 0.8125 1.8125 C1.84461441 4.03207692 1.84461441 4.03207692 3.5625 5.3125 C5.75091538 7.88150936 5.5754275 10.72472643 6 14 C6.66 14.33 7.32 14.66 8 15 C8.72693904 16.97888961 9.39816251 18.97954558 10 21 C5.89008757 18.11960759 4.03536084 15.71441634 2.1875 11.0625 C1.55908203 9.53302734 1.55908203 9.53302734 0.91796875 7.97265625 C0.03516109 5.11386207 -0.19114674 2.96550514 0 0 Z " fill="#C33977" transform="translate(95,158)"/>
<path d="M0 0 C1.34882814 2.69765628 0.80338265 4.15164334 0 7 C-0.99 7.495 -0.99 7.495 -2 8 C-2.68931344 10.34907875 -2.68931344 10.34907875 -3.125 13.0625 C-3.29257813 13.98160156 -3.46015625 14.90070313 -3.6328125 15.84765625 C-3.75398437 16.55792969 -3.87515625 17.26820312 -4 18 C-4.66 18 -5.32 18 -6 18 C-5.65532373 10.76179827 -3.89785009 6.08409811 0 0 Z " fill="#C3457D" transform="translate(9,81)"/>
<path d="M0 0 C1.9989632 2.99844481 2.91035455 5.46134513 4 8.875 C5.20992923 12.64657628 6.48684966 16.33871658 8 20 C5 19 5 19 3.8671875 16.75 C3.53976562 15.8425 3.21234375 14.935 2.875 14 C1.86260057 10.74148734 1.86260057 10.74148734 0 8 C-0.14115161 5.32941149 -0.04247107 2.67567762 0 0 Z " fill="#C14A8B" transform="translate(289,132)"/>
<path d="M0 0 C1.3125 1.5625 1.3125 1.5625 1.3125 3.5625 C1.9725 3.5625 2.6325 3.5625 3.3125 3.5625 C2.9825 4.5525 2.6525 5.5425 2.3125 6.5625 C1.3225 5.9025 0.3325 5.2425 -0.6875 4.5625 C-0.6875 3.9025 -0.6875 3.2425 -0.6875 2.5625 C-5.3075 1.5725 -9.9275 0.5825 -14.6875 -0.4375 C-14.6875 -0.7675 -14.6875 -1.0975 -14.6875 -1.4375 C-13.08429026 -1.63301338 -11.47987014 -1.81861983 -9.875 -2 C-8.98167969 -2.10441406 -8.08835938 -2.20882812 -7.16796875 -2.31640625 C-4.11470641 -2.46546315 -2.34100264 -1.99418743 0 0 Z " fill="#C63D7A" transform="translate(212.6875,123.4375)"/>
<path d="M0 0 C0.969375 0.165 1.93875 0.33 2.9375 0.5 C7.26556336 1.11955917 11.63569972 1.31842534 16 1 C16.33 0.67 16.66 0.34 17 0 C19.33297433 -0.04092937 21.66705225 -0.04241723 24 0 C23.67 0.66 23.34 1.32 23 2 C19.01426874 3.15241217 15.06518868 3.1654268 10.9375 3.1875 C9.12572266 3.20876953 9.12572266 3.20876953 7.27734375 3.23046875 C4.21257502 3.01494866 2.56004585 2.61519102 0 1 C0 0.67 0 0.34 0 0 Z " fill="#A84D9B" transform="translate(375,181)"/>
<path d="M0 0 C1.33333333 0.33333333 2.66666667 0.66666667 4 1 C4.70125 1.0825 5.4025 1.165 6.125 1.25 C6.74375 1.4975 7.3625 1.745 8 2 C9 4.5 9 4.5 10 7 C12.02463255 7.65213292 12.02463255 7.65213292 14 8 C14.33 8.99 14.66 9.98 15 11 C8.61438203 9.69012965 4.45486113 5.50435959 0 1 C0 0.67 0 0.34 0 0 Z " fill="#C2427D" transform="translate(167,169)"/>
<path d="M0 0 C1.14210938 -0.03738281 2.28421875 -0.07476562 3.4609375 -0.11328125 C7.20416209 0.39043663 8.30641802 1.41712793 10.625 4.3125 C7.655 3.8175 7.655 3.8175 4.625 3.3125 C4.625 2.6525 4.625 1.9925 4.625 1.3125 C2.64513918 1.42597619 0.66608402 1.5535935 -1.3125 1.6875 C-2.41464844 1.75710937 -3.51679688 1.82671875 -4.65234375 1.8984375 C-6.00005859 2.10339844 -6.00005859 2.10339844 -7.375 2.3125 C-7.705 2.9725 -8.035 3.6325 -8.375 4.3125 C-10.01863134 5.03409424 -11.68550386 5.70601421 -13.375 6.3125 C-8.62772322 1.44029489 -6.79784347 0.1451225 0 0 Z " fill="#B74983" transform="translate(263.375,92.6875)"/>
<path d="M0 0 C0.33 0 0.66 0 1 0 C1.042721 1.66611905 1.04063832 3.33382885 1 5 C0.67 5.33 0.34 5.66 0 6 C-0.07205511 7.68608966 -0.08386068 9.37500659 -0.0625 11.0625 C-0.05347656 11.98160156 -0.04445313 12.90070313 -0.03515625 13.84765625 C-0.02355469 14.55792969 -0.01195312 15.26820313 0 16 C-1.32 16.33 -2.64 16.66 -4 17 C-3.7178711 14.72796198 -3.42397144 12.45738316 -3.125 10.1875 C-2.96257812 8.92292969 -2.80015625 7.65835938 -2.6328125 6.35546875 C-2 3 -2 3 0 0 Z " fill="#8B43C7" transform="translate(478,113)"/>
<path d="M0 0 C7.35342179 -0.20177072 13.94887561 -0.21211746 21 2 C21 2.66 21 3.32 21 4 C21.66 4 22.32 4 23 4 C23 4.66 23 5.32 23 6 C21.80375 5.54625 20.6075 5.0925 19.375 4.625 C13.0767042 2.49869534 6.57528728 1.79502051 0 1 C0 0.67 0 0.34 0 0 Z " fill="#C1437A" transform="translate(58,119)"/>
<path d="M0 0 C3.38619533 3.07835939 4.85312859 5.48932262 5.30078125 10.09375 C5.30464844 11.2178125 5.30851563 12.341875 5.3125 13.5 C5.32925781 14.6240625 5.34601563 15.748125 5.36328125 16.90625 C4.97238323 20.23518797 4.24878465 21.57914476 2 24 C1.957279 22.33388095 1.95936168 20.66617115 2 19 C2.33 18.67 2.66 18.34 3 18 C3.47675477 11.44462185 2.12764994 6.1803165 0 0 Z " fill="#C24E82" transform="translate(237,148)"/>
<path d="M0 0 C2.56442154 3.84663231 4.45125265 7.93391532 6.46484375 12.08984375 C7.80170973 14.62410623 9.20555592 16.77703196 11 19 C6.03044349 16.87019007 3.25452366 14.0596928 1.25 9.0625 C0.17353035 5.94946615 -0.31130779 3.32061637 0 0 Z " fill="#A74699" transform="translate(383,136)"/>
<path d="M0 0 C0.66 0.33 1.32 0.66 2 1 C3.29930238 5.28769786 3.07516774 9.56510345 3 14 C-0.47325181 15.1577506 -3.36067448 15.06866652 -7 15 C-7 14.67 -7 14.34 -7 14 C-4.69 13.34 -2.38 12.68 0 12 C0 8.04 0 4.08 0 0 Z " fill="#BD4A89" transform="translate(308,140)"/>
<path d="M0 0 C-0.33 1.65 -0.66 3.3 -1 5 C-1.66 4.67 -2.32 4.34 -3 4 C-3 3.34 -3 2.68 -3 2 C-8.94 1.01 -8.94 1.01 -15 0 C-15 -0.33 -15 -0.66 -15 -1 C-9.53891111 -2.4002792 -5.30723432 -1.42705634 0 0 Z " fill="#C6407A" transform="translate(30,58)"/>
<path d="M0 0 C0.66 0 1.32 0 2 0 C0.89061647 6.30596952 -0.93197901 11.37529486 -4 17 C-5.04449911 13.86650268 -4.93423645 13.01031744 -4 10 C-3.34 10 -2.68 10 -2 10 C-2 7.69 -2 5.38 -2 3 C-1.34 3 -0.68 3 0 3 C0 2.01 0 1.02 0 0 Z " fill="#A94A9C" transform="translate(415,154)"/>
<path d="M0 0 C2.125 0 2.125 0 5 1 C8.72006668 4.80718768 11 7.58163288 11 13 C10.34 13 9.68 13 9 13 C8.7215625 11.700625 8.7215625 11.700625 8.4375 10.375 C6.75209555 6.41796346 4.79047484 4.78810391 1.4609375 2.19921875 C0.97882813 1.80347656 0.49671875 1.40773437 0 1 C0 0.67 0 0.34 0 0 Z " fill="#974AA4" transform="translate(458,55)"/>
<path d="M0 0 C2.60423592 -0.02697137 5.20819244 -0.04682489 7.8125 -0.0625 C8.55048828 -0.07087891 9.28847656 -0.07925781 10.04882812 -0.08789062 C13.29922068 -0.10259828 15.89404895 -0.03531702 19 1 C19.33 1.99 19.66 2.98 20 4 C13.4 3.01 6.8 2.02 0 1 C0 0.67 0 0.34 0 0 Z " fill="#F9D3EA" transform="translate(95,0)"/>
<path d="M0 0 C0.66 0 1.32 0 2 0 C0.63088196 3.1489715 -0.8752136 5.0478487 -3.5 7.25 C-4.41265625 8.03117188 -4.41265625 8.03117188 -5.34375 8.828125 C-7 10 -7 10 -9 10 C-9 9.34 -9 8.68 -9 8 C-8.34 8 -7.68 8 -7 8 C-7 6.68 -7 5.36 -7 4 C-5.68 4 -4.36 4 -3 4 C-2.67 3.34 -2.34 2.68 -2 2 C-1.34 2 -0.68 2 0 2 C0 1.34 0 0.68 0 0 Z " fill="#C4457C" transform="translate(147,173)"/>
<path d="M0 0 C0.54269531 0.28875 1.08539063 0.5775 1.64453125 0.875 C5.19489087 2.57069415 8.91428965 3.73782536 12.63671875 5 C15 6 15 6 16 8 C10.80073761 7.48007376 6.36286536 5.84961927 2 3 C1.34 2.01 0.68 1.02 0 0 Z " fill="#BE5382" transform="translate(9,177)"/>
<path d="M0 0 C-1.75 7.75 -1.75 7.75 -4 10 C-4.33 9.67 -4.66 9.34 -5 9 C-4.94921875 7.1875 -4.94921875 7.1875 -4.6875 5 C-4.60886719 4.278125 -4.53023438 3.55625 -4.44921875 2.8125 C-4.30097656 2.214375 -4.15273438 1.61625 -4 1 C-2 0 -2 0 0 0 Z " fill="#B249A4" transform="translate(422,140)"/>
<path d="M0 0 C0.33 0 0.66 0 1 0 C1.09796875 0.61488281 1.1959375 1.22976562 1.296875 1.86328125 C2.13291046 6.99409305 2.13291046 6.99409305 5.125 11.0625 C5.74375 11.371875 6.3625 11.68125 7 12 C4.03 11.505 4.03 11.505 1 11 C1 10.34 1 9.68 1 9 C0.34 9 -0.32 9 -1 9 C-1.125 2.25 -1.125 2.25 0 0 Z " fill="#8648B8" transform="translate(494,131)"/>
<path d="M0 0 C2.63822024 3.10378852 3.70365731 5.81462924 4.6875 9.75 C4.93886719 10.73484375 5.19023437 11.7196875 5.44921875 12.734375 C5.72185547 13.85585937 5.72185547 13.85585937 6 15 C5.34 14.67 4.68 14.34 4 14 C4 13.34 4 12.68 4 12 C3.34 12 2.68 12 2 12 C0.86235649 7.73383684 0 4.43513689 0 0 Z " fill="#C2538E" transform="translate(279,104)"/>
<path d="M0 0 C1.65 0.33 3.3 0.66 5 1 C1.777893 4.8665284 -1.14922412 5.88059018 -6 7 C-5.25 5.0625 -5.25 5.0625 -4 3 C-1.875 2.25 -1.875 2.25 0 2 C0 1.34 0 0.68 0 0 Z " fill="#C33E78" transform="translate(128,96)"/>
<path d="M0 0 C1 3 1 3 -0.4375 6.1875 C-1.2109375 7.5796875 -1.2109375 7.5796875 -2 9 C-2.99 8.67 -3.98 8.34 -5 8 C-5 8.66 -5 9.32 -5 10 C-6.875 10.625 -6.875 10.625 -9 11 C-9.66 10.34 -10.32 9.68 -11 9 C-10.45730469 8.76925781 -9.91460937 8.53851563 -9.35546875 8.30078125 C-4.81386724 6.23046561 -2.11687258 4.76296329 0 0 Z " fill="#C24C7F" transform="translate(104,76)"/>
<path d="M0 0 C4.29 0.33 8.58 0.66 13 1 C13 1.99 13 2.98 13 4 C8.28596212 3.52060632 4.33420699 3.03165952 0 1 C0 0.67 0 0.34 0 0 Z " fill="#C64F86" transform="translate(182,180)"/>
<path d="M0 0 C-2 2 -2 2 -5.9140625 2.1953125 C-7.48449351 2.18200376 -9.05486221 2.15813602 -10.625 2.125 C-11.42679688 2.11597656 -12.22859375 2.10695312 -13.0546875 2.09765625 C-15.03658523 2.07406223 -17.01832981 2.03819065 -19 2 C-19 1.67 -19 1.34 -19 1 C-17.64455078 0.90912109 -17.64455078 0.90912109 -16.26171875 0.81640625 C-14.49248047 0.69072266 -14.49248047 0.69072266 -12.6875 0.5625 C-10.92986328 0.44068359 -10.92986328 0.44068359 -9.13671875 0.31640625 C-1.39388145 -0.46462715 -1.39388145 -0.46462715 0 0 Z " fill="#FED1ED" transform="translate(140,184)"/>
<path d="M0 0 C0.99 0.33 1.98 0.66 3 1 C1.5682479 6.01113235 -0.98445693 7.94469549 -5 11 C-4.731875 10.484375 -4.46375 9.96875 -4.1875 9.4375 C-2.67650593 6.33598585 -1.34427274 3.17737194 0 0 Z " fill="#BC4281" transform="translate(314,169)"/>
<path d="M0 0 C2 2 2 2 2.0625 5.375 C2.041875 6.57125 2.02125 7.7675 2 9 C2.42854995 11.31036915 2.42854995 11.31036915 3 13 C0.2289312 10.65408148 -0.52059284 8.85223799 -1.1875 5.3125 C-1.34605469 4.50425781 -1.50460938 3.69601563 -1.66796875 2.86328125 C-1.77753906 2.24839844 -1.88710938 1.63351563 -2 1 C-1.34 0.67 -0.68 0.34 0 0 Z " fill="#C63E7A" transform="translate(4,161)"/>
<path d="M0 0 C0.66 0.33 1.32 0.66 2 1 C2.05422947 2.4370809 2.09289723 3.87475462 2.125 5.3125 C2.14820313 6.11300781 2.17140625 6.91351563 2.1953125 7.73828125 C2 10 2 10 0 13 C-0.19397476 11.02145742 -0.38001321 9.0421352 -0.5625 7.0625 C-0.66691406 5.96035156 -0.77132813 4.85820313 -0.87890625 3.72265625 C-0.91886719 2.82417969 -0.95882813 1.92570312 -1 1 C-0.67 0.67 -0.34 0.34 0 0 Z " fill="#AF62A7" transform="translate(427,108)"/>
<path d="M0 0 C5.66153846 1.47692308 5.66153846 1.47692308 7.375 4.125 C7.684375 5.053125 7.684375 5.053125 8 6 C4.38462395 6 2.88834003 5.10770759 0 3 C0 2.01 0 1.02 0 0 Z " fill="#C63C7A" transform="translate(222,97)"/>
<path d="M0 0 C0.33 1.32 0.66 2.64 1 4 C-1.4375 6.75 -1.4375 6.75 -4 9 C-4.99 8.67 -5.98 8.34 -7 8 C-4.69 5.36 -2.38 2.72 0 0 Z " fill="#FCE8F8" transform="translate(317,171)"/>
<path d="M0 0 C1 2 1 2 0.0625 5.125 C-0.288125 6.07375 -0.63875 7.0225 -1 8 C-2.32 7.34 -3.64 6.68 -5 6 C-4.75 4.125 -4.75 4.125 -4 2 C-1.9375 0.75 -1.9375 0.75 0 0 Z " fill="#B041A1" transform="translate(359,152)"/>
<path d="M0 0 C0.33 0 0.66 0 1 0 C1 2.64 1 5.28 1 8 C0.01 8.33 -0.98 8.66 -2 9 C-2.66 8.34 -3.32 7.68 -4 7 C-2.68 4.69 -1.36 2.38 0 0 Z " fill="#A547B6" transform="translate(469,67)"/>
<path d="M0 0 C4.82675589 2.41337795 7.69984002 5.86062408 11 10 C8.06120516 8.64763423 5.70767089 7.10057341 3.25 5 C2.63640625 4.484375 2.0228125 3.96875 1.390625 3.4375 C0 2 0 2 0 0 Z " fill="#C24D7F" transform="translate(132,12)"/>
<path d="M0 0 C0.66 0.33 1.32 0.66 2 1 C1.67 3.97 1.34 6.94 1 10 C-0.95418308 7.06872538 -1.64700993 5.44165321 -2 2 C-1.34 1.34 -0.68 0.68 0 0 Z " fill="#CA3777" transform="translate(92,133)"/>
<path d="M0 0 C2.97 0.495 2.97 0.495 6 1 C6 1.66 6 2.32 6 3 C6.66 3 7.32 3 8 3 C7.67 3.99 7.34 4.98 7 6 C3.73539027 4.19587357 2.11070205 3.16605307 0 0 Z " fill="#C8477F" transform="translate(7,51)"/>
<path d="M0 0 C0.66 0.33 1.32 0.66 2 1 C1.07038578 2.15224028 0.1309875 3.29659176 -0.8125 4.4375 C-1.59560547 5.39462891 -1.59560547 5.39462891 -2.39453125 6.37109375 C-4 8 -4 8 -7 9 C-6.67 8.01 -6.34 7.02 -6 6 C-5.34 6 -4.68 6 -4 6 C-3.71125 5.38125 -3.4225 4.7625 -3.125 4.125 C-2 2 -2 2 0 0 Z " fill="#8D57B9" transform="translate(551,168)"/>
<path d="M0 0 C1.65 0 3.3 0 5 0 C5 0.66 5 1.32 5 2 C6.98 2 8.96 2 11 2 C11 2.33 11 2.66 11 3 C7.37 3 3.74 3 0 3 C0 2.01 0 1.02 0 0 Z " fill="#FEDAEF" transform="translate(217,140)"/>
<path d="M0 0 C0.66 0 1.32 0 2 0 C2.38922918 1.28745036 2.76098036 2.58019597 3.125 3.875 C3.33382813 4.59429687 3.54265625 5.31359375 3.7578125 6.0546875 C3.83773438 6.69664063 3.91765625 7.33859375 4 8 C3.34 8.66 2.68 9.32 2 10 C2 8.35 2 6.7 2 5 C1.01 4.67 0.02 4.34 -1 4 C-0.67 2.68 -0.34 1.36 0 0 Z " fill="#B356A6" transform="translate(373,107)"/>
<path d="M0 0 C0.66 0 1.32 0 2 0 C2.33 1.32 2.66 2.64 3 4 C1.68 4.99 0.36 5.98 -1 7 C-1.625 4.625 -1.625 4.625 -2 2 C-1.34 1.34 -0.68 0.68 0 0 Z " fill="#C93778" transform="translate(140,85)"/>
<path d="M0 0 C0.66 0.66 1.32 1.32 2 2 C1.60495559 4.9628331 0.40182371 7.38326241 -1 10 C-1.309375 8.88625 -1.61875 7.7725 -1.9375 6.625 C-2.82326483 3.2054845 -2.82326483 3.2054845 -4 1 C-2.125 0.375 -2.125 0.375 0 0 Z " fill="#843EC1" transform="translate(539,128)"/>
<path d="M0 0 C2 0 2 0 3.5 1.125 C5.44959415 3.56199269 6.14037542 6.02437647 7 9 C3.26115668 6.34345343 1.35021826 4.41889613 0 0 Z " fill="#C64A7E" transform="translate(98,170)"/>
<path d="M0 0 C0.33 0 0.66 0 1 0 C1.125 7.625 1.125 7.625 0 11 C-0.66 11 -1.32 11 -2 11 C-1.40049704 7.31733897 -0.75241109 3.65456815 0 0 Z " fill="#C34880" transform="translate(241,120)"/>
<path d="M0 0 C0.99 0.33 1.98 0.66 3 1 C2.360625 1.103125 1.72125 1.20625 1.0625 1.3125 C0.0415625 1.6528125 0.0415625 1.6528125 -1 2 C-1.33 2.99 -1.66 3.98 -2 5 C-4.5625 6.1875 -4.5625 6.1875 -7 7 C-2.25 1.125 -2.25 1.125 0 0 Z " fill="#9C51A7" transform="translate(442,55)"/>
<path d="M0 0 C0.66 0 1.32 0 2 0 C2 0.99 2 1.98 2 3 C2.66 3 3.32 3 4 3 C4 4.65 4 6.3 4 8 C3.01 7.67 2.02 7.34 1 7 C0.67 4.69 0.34 2.38 0 0 Z " fill="#CD3374" transform="translate(147,38)"/>
<path d="M0 0 C1 2 1 2 0.1875 5.0625 C-1 8 -1 8 -3 9 C-2.5020163 5.26512223 -2.12508244 3.18762365 0 0 Z " fill="#8941C1" transform="translate(555,159)"/>
<path d="M0 0 C4.455 0.99 4.455 0.99 9 2 C7 4 7 4 3.875 4.125 C2.451875 4.063125 2.451875 4.063125 1 4 C0.67 2.68 0.34 1.36 0 0 Z " fill="#C53983" transform="translate(297,153)"/>
<path d="M0 0 C1.65 0.33 3.3 0.66 5 1 C5 1.99 5 2.98 5 4 C2.03 3.505 2.03 3.505 -1 3 C-0.67 2.01 -0.34 1.02 0 0 Z " fill="#C73E7E" transform="translate(231,145)"/>
<path d="M0 0 C2.97 0 5.94 0 9 0 C5.39338934 1.80330533 2.91606575 2.46599103 -1 3 C-0.67 2.01 -0.34 1.02 0 0 Z " fill="#C63B7B" transform="translate(189,94)"/>
</svg>
